<svg xmlns="http://www.w3.org/2000/svg" viewBox="0 0 200 200" width="200" height="200">
  <rect width="200" height="200" fill="#1e1b14" rx="10"/>

  <!-- Bag -->
  <path d="M48 65 L152 65 L144 170 L56 170 Z" fill="#3d2a10" stroke="#c9963a" stroke-width="1.5"/>
  <!-- Bag top seal -->
  <rect x="45" y="50" width="110" height="22" rx="5" fill="#2a1c0a" stroke="#c9963a" stroke-width="1.2"/>
  <!-- Granola cluster illustration -->
  <circle cx="82" cy="100" r="9" fill="#c9963a" opacity=".6"/>
  <circle cx="90" cy="92" r="7" fill="#c87a10" opacity=".5"/>
  <circle cx="100" cy="98" r="10" fill="#c9963a" opacity=".55"/>
  <circle cx="110" cy="92" r="7" fill="#c87a10" opacity=".5"/>
  <circle cx="118" cy="100" r="8" fill="#c9963a" opacity=".5"/>
  <circle cx="90" cy="110" r="7" fill="#c87a10" opacity=".45"/>
  <circle cx="110" cy="110" r="7" fill="#c9963a" opacity=".5"/>
  <circle cx="100" cy="115" r="6" fill="#c87a10" opacity=".4"/>
  <!-- Salt crystals -->
  <rect x="84" y="97" width="3" height="3" rx=".5" fill="rgba(255,255,255,.4)"/>
  <rect x="105" y="95" width="3" height="3" rx=".5" fill="rgba(255,255,255,.4)"/>
  <rect x="96" y="108" width="3" height="3" rx=".5" fill="rgba(255,255,255,.4)"/>
  <!-- Label strip -->
  <rect x="58" y="130" width="84" height="24" rx="4" fill="rgba(201,150,58,.1)" stroke="#c9963a" stroke-width=".75"/>
  <line x1="66" y1="139" x2="134" y2="139" stroke="#c9963a" stroke-width=".7" opacity=".35"/>
  <line x1="66" y1="147" x2="134" y2="147" stroke="#c9963a" stroke-width=".7" opacity=".25"/>

</svg>
